<svg width="35" height="39" viewBox="0 0 35 39" fill="none" xmlns="http://www.w3.org/2000/svg">
<path d="M11.6666 13L11.6666 10.7083C11.6666 7.48667 14.2783 4.875 17.5 4.875V4.875C20.7216 4.875 23.3333 7.48667 23.3333 10.7083L23.3333 13" stroke="#B1A28F" stroke-width="2" stroke-linecap="round"/>
<path fill-rule="evenodd" clip-rule="evenodd" d="M4.96079 11.9608C4.375 12.5466 4.375 13.4894 4.375 15.375V27.75C4.375 31.5212 4.375 33.4069 5.54657 34.5784C6.71815 35.75 8.60376 35.75 12.375 35.75H22.625C26.3962 35.75 28.2819 35.75 29.4534 34.5784C30.625 33.4069 30.625 31.5212 30.625 27.75V15.375C30.625 13.4894 30.625 12.5466 30.0392 11.9608C29.4534 11.375 28.5106 11.375 26.625 11.375H8.375C6.48938 11.375 5.54657 11.375 4.96079 11.9608ZM14.125 19.5C14.125 18.9477 13.6773 18.5 13.125 18.5C12.5727 18.5 12.125 18.9477 12.125 19.5V22.75C12.125 23.3023 12.5727 23.75 13.125 23.75C13.6773 23.75 14.125 23.3023 14.125 22.75V19.5ZM22.875 19.5C22.875 18.9477 22.4273 18.5 21.875 18.5C21.3227 18.5 20.875 18.9477 20.875 19.5V22.75C20.875 23.3023 21.3227 23.75 21.875 23.75C22.4273 23.75 22.875 23.3023 22.875 22.75V19.5Z" fill="#FEFEFE"/>
</svg>
