<svg width="50" height="53" viewBox="0 0 50 53" fill="none" xmlns="http://www.w3.org/2000/svg">
<path d="M24.5 11.0417L25.6014 10.0234L24.5 8.83205L23.3986 10.0234L24.5 11.0417ZM23 37.5417C23 38.3701 23.6715 39.0417 24.5 39.0417C25.3284 39.0417 26 38.3701 26 37.5417H23ZM33.768 18.8567L25.6014 10.0234L23.3986 12.0599L31.5652 20.8933L33.768 18.8567ZM23.3986 10.0234L15.2319 18.8567L17.4347 20.8933L25.6014 12.0599L23.3986 10.0234ZM23 11.0417V37.5417H26V11.0417H23Z" fill="#ECEBF0"/>
<line x1="34" y1="14.5" x2="50" y2="14.5" stroke="#ECEBF0" stroke-width="3"/>
<line x1="39" y1="21.5" x2="50" y2="21.5" stroke="#ECEBF0" stroke-width="3"/>
<line x1="34" y1="28.5" x2="50" y2="28.5" stroke="#ECEBF0" stroke-width="3"/>
<line x1="39" y1="35.5" x2="50" y2="35.5" stroke="#ECEBF0" stroke-width="3"/>
</svg>
