<svg width="48" height="48" viewBox="0 0 48 48" fill="none" xmlns="http://www.w3.org/2000/svg">
<path d="M30.3918 24.3091L29.7522 25.0778L30.3918 24.3091ZM19 12C19 9.23858 21.2386 7 24 7V5C20.134 5 17 8.13401 17 12H19ZM19 23.4997V12H17V23.4997H19ZM15 32C15 29.2174 16.2616 26.7303 18.2478 25.0778L16.9686 23.5404C14.5453 25.5566 13 28.5983 13 32H15ZM24 41C19.0294 41 15 36.9706 15 32H13C13 38.0751 17.9249 43 24 43V41ZM33 32C33 36.9706 28.9706 41 24 41V43C30.0751 43 35 38.0751 35 32H33ZM29.7522 25.0778C31.7384 26.7303 33 29.2174 33 32H35C35 28.5983 33.4547 25.5566 31.0314 23.5404L29.7522 25.0778ZM29 12V23.4997H31V12H29ZM24 7C26.7614 7 29 9.23858 29 12H31C31 8.13401 27.866 5 24 5V7ZM31.0314 23.5404C31.0157 23.5273 31.0069 23.5144 31.0028 23.506C30.9991 23.4984 31 23.4966 31 23.4997H29C29 24.1375 29.3031 24.7041 29.7522 25.0778L31.0314 23.5404ZM17 23.4997C17 23.4966 17.0009 23.4984 16.9972 23.506C16.9931 23.5144 16.9843 23.5273 16.9686 23.5404L18.2478 25.0778C18.6969 24.7041 19 24.1375 19 23.4997H17Z" fill="#ECEBF0"/>
<circle cx="24" cy="32" r="4" fill="#ECEBF0"/>
<line x1="12" y1="13" x2="16" y2="13" stroke="#ECEBF0" stroke-width="2"/>
<line x1="12" y1="17" x2="16" y2="17" stroke="#ECEBF0" stroke-width="2"/>
<line x1="12" y1="21" x2="16" y2="21" stroke="#ECEBF0" stroke-width="2"/>
</svg>
